<svg width="307" height="186" viewBox="0 0 307 186" fill="none" xmlns="http://www.w3.org/2000/svg">
<rect y="14" width="307" height="158" rx="79" fill="#2EC0FF"/>
<path d="M228 14C271.63 14 307 49.3695 307 93C307 136.63 271.63 172 228 172H154V14H228Z" fill="#E20000"/>
<path d="M41.857 142L59.589 41.9H74.89L87.76 87.231L116.36 41.9H133.091L115.359 142H100.916L113.5 70.929L91.049 106.536H79.037L68.884 70.786L56.3 142H41.857Z" fill="white"/>
<path d="M200.029 142L215.33 55.485H188.446L190.877 41.9H259.803L257.372 55.485H230.488L215.187 142H200.029Z" fill="white"/>
</svg>
